HIERARCHY
ROOT Pelvis
{
	OFFSET 0.000000 0.000000 0.000000
	CHANNELS 6 Xposition Yposition Zposition Xrotation Yrotation Zrotation
	JOINT LeftUpLeg_virtual
	{
		OFFSET 0.000000 0.000000 0.000000
		CHANNELS 3 Xrotation Yrotation Zrotation
		JOINT LeftUpLeg
		{
			OFFSET 18.735201 -5.666702 -4.541200
			CHANNELS 3 Xrotation Yrotation Zrotation
			JOINT LeftLeg
			{
				OFFSET -0.021200 -31.938179 0.493100
				CHANNELS 3 Xrotation Yrotation Zrotation
				JOINT LeftFoot
				{
					OFFSET 0.021200 -31.938179 -4.336299
					CHANNELS 3 Xrotation Yrotation Zrotation
					JOINT LeftToeBase
					{
						OFFSET 0.943001 -26.722000 15.023500
						CHANNELS 3 Xrotation Yrotation Zrotation
						End Site
						{
							OFFSET 0 0 0
						}
					}
				}
			}
		}
	}
	JOINT RightUpLeg_virtual
	{
		OFFSET 0.000000 0.000000 0.000000
		CHANNELS 3 Xrotation Yrotation Zrotation
		JOINT RightUpLeg
		{
			OFFSET -18.735201 -5.666702 -4.541200
			CHANNELS 3 Xrotation Yrotation Zrotation
			JOINT RightLeg
			{
				OFFSET 0.018946 -31.938133 0.493100
				CHANNELS 3 Xrotation Yrotation Zrotation
				JOINT RightFoot
				{
					OFFSET -0.018946 -31.938126 -4.336299
					CHANNELS 3 Xrotation Yrotation Zrotation
					JOINT RightToeBase
					{
						OFFSET -0.943001 -26.722004 15.023500
						CHANNELS 3 Xrotation Yrotation Zrotation
						End Site
						{
							OFFSET 0 0 0
						}
					}
				}
			}
		}
	}
	JOINT Hips_virtual
	{
		OFFSET 0.000000 0.000000 0.000000
		CHANNELS 3 Xrotation Yrotation Zrotation
		JOINT Hips
		{
			OFFSET -0.000000 -0.000000 -0.000000
			CHANNELS 3 Xrotation Yrotation Zrotation
			JOINT Spine
			{
				OFFSET 0.000000 10.199997 -0.299500
				CHANNELS 3 Xrotation Yrotation Zrotation
				JOINT Spine1
				{
					OFFSET 0.000000 11.900002 -1.516600
					CHANNELS 3 Xrotation Yrotation Zrotation
					JOINT Spine2
					{
						OFFSET 0.000000 13.600006 -2.842500
						CHANNELS 3 Xrotation Yrotation Zrotation
						JOINT Neck_virtual
						{
							OFFSET 0.000000 0.000000 0.000000
							CHANNELS 3 Xrotation Yrotation Zrotation
							JOINT Neck
							{
								OFFSET 0.000000 9.624100 -2.890100
								CHANNELS 3 Xrotation Yrotation Zrotation
								JOINT Head
								{
									OFFSET 0.000000 14.068802 -1.351900
									CHANNELS 3 Xrotation Yrotation Zrotation
									End Site
									{
										OFFSET 0 0 0
									}
								}
							}
						}
						JOINT LeftShoulder_virtual
						{
							OFFSET 0.000000 0.000000 0.000000
							CHANNELS 3 Xrotation Yrotation Zrotation
							JOINT LeftShoulder
							{
								OFFSET 15.263000 10.923401 -0.547700
								CHANNELS 3 Xrotation Yrotation Zrotation
								JOINT LeftArm
								{
									OFFSET 25.438599 -2.830597 -13.032500
									CHANNELS 3 Xrotation Yrotation Zrotation
									JOINT LeftForeArm
									{
										OFFSET 29.960503 0.000000 0.000000
										CHANNELS 3 Xrotation Yrotation Zrotation
										JOINT LeftHand
										{
											OFFSET 27.849251 0.000000 0.000000
											CHANNELS 3 Xrotation Yrotation Zrotation
											End Site
											{
												OFFSET 0 0 0
											}
										}
									}
								}
							}
						}
						JOINT RightShoulder_virtual
						{
							OFFSET 0.000000 0.000000 0.000000
							CHANNELS 3 Xrotation Yrotation Zrotation
							JOINT RightShoulder
							{
								OFFSET -15.263000 10.923401 -0.547700
								CHANNELS 3 Xrotation Yrotation Zrotation
								JOINT RightArm
								{
									OFFSET -25.438599 -2.830597 -13.032500
									CHANNELS 3 Xrotation Yrotation Zrotation
									JOINT RightForeArm
									{
										OFFSET -29.960503 0.000000 0.000000
										CHANNELS 3 Xrotation Yrotation Zrotation
										JOINT RightHand
										{
											OFFSET -27.849251 0.000000 0.000000
											CHANNELS 3 Xrotation Yrotation Zrotation
											End Site
											{
												OFFSET 0 0 0
											}
										}
									}
								}
							}
						}
					}
				}
			}
		}
	}
}
MOTION
Frames: 9
Frame Time: 0.03333333
1.657140 83.640648 -0.884025 0.000000 0.000000 0.000000 4.174743 -15.990579 -2.477367 -37.625046 7.559176 14.122774 54.167013 6.341565 -2.036272 -4.032654 6.364185 -3.885292 0.000000 0.000000 0.000000 -2.730949 -2.287577 6.959915 -35.509187 -6.061413 -8.405016 50.112367 -7.615763 -4.157452 -11.318572 -7.434857 0.337653 0.000000 0.000000 0.000000 10.929278 9.012484 0.159233 13.018939 -3.545100 2.969511 10.932671 1.663540 -0.519304 6.712249 0.490654 -0.893394 0.000000 0.000000 0.000000 4.338291 1.406487 0.610327 -0.197375 -1.097374 1.750034 0.000000 0.000000 0.000000 8.671501 -0.148851 0.780954 3.775386 -19.302261 5.538495 -58.537856 -31.232102 -70.175460 -162.947837 -71.762926 -159.636889 0.000000 0.000000 0.000000 8.822355 1.587949 -0.013907 2.986939 7.061765 3.820684 -53.622750 55.345986 46.730880 -167.911417 79.759725 163.037640 0.000000 0.000000 0.000000 
1.662349 83.644630 -0.897741 0.000000 0.000000 0.000000 4.175667 -15.988831 -2.468565 -37.623984 7.556133 14.131277 54.165729 6.343555 -2.033856 -4.037264 6.364408 -3.880689 0.000000 0.000000 0.000000 -2.732836 -2.290214 6.965913 -35.511168 -6.063723 -8.398513 50.109703 -7.612817 -4.159637 -11.323509 -7.431181 0.337788 0.000000 0.000000 0.000000 10.918680 8.984489 0.162986 12.990992 -3.586394 2.969325 10.939583 1.649852 -0.512177 6.714843 0.482713 -0.888244 0.000000 0.000000 0.000000 4.339189 1.400671 0.609424 -0.195534 -1.098400 1.747742 0.000000 0.000000 0.000000 8.678681 -0.155973 0.784458 3.782358 -19.311930 5.536674 -58.543197 -31.231368 -70.182926 -162.925939 -71.769961 -159.618543 0.000000 0.000000 0.000000 8.824690 1.581435 -0.012613 2.990969 7.063204 3.810052 -53.614161 55.336956 46.712681 -167.906185 79.777245 163.024034 0.000000 0.000000 0.000000 
1.667465 83.648521 -0.913668 0.000000 0.000000 0.000000 4.178038 -15.986024 -2.456724 -37.621256 7.552432 14.142620 54.162912 6.346195 -2.031537 -4.043860 6.365163 -3.875770 0.000000 0.000000 0.000000 -2.734050 -2.292732 6.970799 -35.512524 -6.065720 -8.393335 50.106411 -7.609071 -4.162707 -11.329925 -7.426366 0.337694 0.000000 0.000000 0.000000 10.908090 8.956332 0.166478 12.968670 -3.624894 2.969435 10.949644 1.637514 -0.504868 6.718769 0.475538 -0.882658 0.000000 0.000000 0.000000 4.340581 1.395625 0.609270 -0.193236 -1.099038 1.745797 0.000000 0.000000 0.000000 8.686923 -0.162668 0.787812 3.789452 -19.321091 5.533793 -58.551100 -31.226594 -70.194633 -162.897635 -71.775774 -159.595252 0.000000 0.000000 0.000000 8.828653 1.575318 -0.010835 2.995825 7.064670 3.800697 -53.608567 55.323511 46.688509 -167.893741 79.798698 163.000388 0.000000 0.000000 0.000000 
1.672648 83.652512 -0.931738 0.000000 0.000000 0.000000 4.182873 -15.983223 -2.441340 -37.615815 7.547899 14.157135 54.158879 6.349248 -2.029244 -4.052102 6.366217 -3.870588 0.000000 0.000000 0.000000 -2.733780 -2.296470 6.974790 -35.512339 -6.067928 -8.389357 50.103157 -7.604118 -4.166358 -11.337453 -7.420217 0.338095 0.000000 0.000000 0.000000 10.897209 8.928595 0.169600 12.948761 -3.661954 2.969383 10.963308 1.626939 -0.497193 6.724314 0.469371 -0.876544 0.000000 0.000000 0.000000 4.342709 1.391527 0.610062 -0.190392 -1.099306 1.744373 0.000000 0.000000 0.000000 8.696251 -0.168798 0.791025 3.796557 -19.329743 5.529739 -58.560758 -31.218626 -70.211449 -162.864795 -71.779660 -159.569010 0.000000 0.000000 0.000000 8.834658 1.569874 -0.008494 3.001607 7.066956 3.793298 -53.606029 55.307074 46.658358 -167.876884 79.823936 162.969406 0.000000 0.000000 0.000000 
1.677735 83.656487 -0.951236 0.000000 0.000000 0.000000 4.191119 -15.981789 -2.421963 -37.606742 7.542306 14.175089 54.154401 6.352259 -2.026925 -4.061198 6.367133 -3.865369 0.000000 0.000000 0.000000 -2.731286 -2.303147 6.978326 -35.509843 -6.071030 -8.386256 50.101196 -7.597680 -4.170216 -11.345188 -7.412652 0.339658 0.000000 0.000000 0.000000 10.885642 8.901402 0.172319 12.927995 -3.699687 2.968814 10.981056 1.618488 -0.488961 6.731744 0.464436 -0.869792 0.000000 0.000000 0.000000 4.345816 1.388531 0.611856 -0.186938 -1.099222 1.743559 0.000000 0.000000 0.000000 8.706476 -0.174239 0.794084 3.803416 -19.337857 5.524309 -58.571235 -31.209149 -70.235033 -162.830344 -71.780227 -159.543179 0.000000 0.000000 0.000000 8.843019 1.565404 -0.005561 3.008326 7.070949 3.788280 -53.605968 55.289726 46.621949 -167.859590 79.852548 162.935201 0.000000 0.000000 0.000000 
1.682136 83.660103 -0.970710 0.000000 0.000000 0.000000 4.203515 -15.983109 -2.398242 -37.593334 7.535412 14.196685 54.150908 6.354463 -2.024549 -4.069829 6.367217 -3.860560 0.000000 0.000000 0.000000 -2.726064 -2.314906 6.982039 -35.504594 -6.075862 -8.383554 50.102398 -7.589758 -4.173807 -11.351716 -7.403849 0.342920 0.000000 0.000000 0.000000 10.872918 8.874018 0.174747 12.903160 -3.741818 2.967708 11.003456 1.612489 -0.480065 6.741341 0.460948 -0.862318 0.000000 0.000000 0.000000 4.350153 1.386795 0.614535 -0.182843 -1.098788 1.743347 0.000000 0.000000 0.000000 8.717201 -0.178863 0.796894 3.809551 -19.345292 5.516931 -58.581180 -31.200752 -70.267668 -162.798378 -71.775501 -159.522592 0.000000 0.000000 0.000000 8.853943 1.562286 -0.002099 3.015892 7.077895 3.785684 -53.606958 55.274327 46.578625 -167.847691 79.883973 162.903796 0.000000 0.000000 0.000000 
1.684757 83.662949 -0.987983 0.000000 0.000000 0.000000 4.220310 -15.988098 -2.370045 -37.575452 7.527033 14.222000 54.150402 6.354747 -2.022050 -4.076222 6.365440 -3.856792 0.000000 0.000000 0.000000 -2.718102 -2.334339 6.986643 -35.496859 -6.083333 -8.380715 50.109085 -7.580733 -4.176495 -11.355213 -7.394347 0.348308 0.000000 0.000000 0.000000 10.858502 8.844549 0.177212 12.871191 -3.794267 2.966728 11.031087 1.609208 -0.470560 6.753404 0.459119 -0.854125 0.000000 0.000000 0.000000 4.355901 1.386491 0.617801 -0.178131 -1.097990 1.743636 0.000000 0.000000 0.000000 8.727771 -0.182542 0.799217 3.814224 -19.351640 5.506446 -58.588516 -31.197012 -70.311600 -162.774664 -71.762933 -159.513945 0.000000 0.000000 0.000000 8.867495 1.561018 0.001726 3.024055 7.089549 3.785159 -53.607037 55.264519 46.527757 -167.848402 79.917236 162.882977 0.000000 0.000000 0.000000 
1.684037 83.664734 -1.000426 0.000000 0.000000 0.000000 4.240797 -15.996481 -2.337686 -37.553978 7.517206 14.250899 54.155095 6.351712 -2.019255 -4.078497 6.360467 -3.854758 0.000000 0.000000 0.000000 -2.708236 -2.364479 6.992771 -35.488068 -6.094335 -8.377325 50.123842 -7.571383 -4.177470 -11.353605 -7.385091 0.356160 0.000000 0.000000 0.000000 10.841837 8.809848 0.180305 12.829290 -3.865155 2.967647 11.064329 1.608827 -0.460698 6.768143 0.459168 -0.845327 0.000000 0.000000 0.000000 4.363021 1.387810 0.621180 -0.172940 -1.096794 1.744261 0.000000 0.000000 0.000000 8.737296 -0.185146 0.800619 3.816442 -19.356310 5.491074 -58.590155 -31.202476 -70.368044 -162.767028 -71.740175 -159.525775 0.000000 0.000000 0.000000 8.883492 1.562221 0.005656 3.032284 7.108181 3.786135 -53.604639 55.263989 46.469697 -167.869029 79.950670 162.880805 0.000000 0.000000 0.000000 
1.678238 83.665504 -1.005584 0.000000 0.000000 0.000000 4.262694 -16.005937 -2.302260 -37.531712 7.506333 14.282898 54.166750 6.343837 -2.015770 -4.075305 6.350735 -3.854964 0.000000 0.000000 0.000000 -2.698582 -2.408625 7.000791 -35.481398 -6.109582 -8.373278 50.149284 -7.562841 -4.175790 -11.344826 -7.377368 0.366727 0.000000 0.000000 0.000000 10.822372 8.765749 0.184914 12.775029 -3.964090 2.973740 11.102982 1.611409 -0.450893 6.785512 0.461332 -0.836162 0.000000 0.000000 0.000000 4.371015 1.390935 0.624070 -0.167610 -1.095159 1.745039 0.000000 0.000000 0.000000 8.744655 -0.186573 0.800452 3.815010 -19.358616 5.468538 -58.582116 -31.222369 -70.435786 -162.785456 -71.705266 -159.568273 0.000000 0.000000 0.000000 8.901259 1.566574 0.009416 3.039571 7.136295 3.788201 -53.600046 55.275256 46.407488 -167.913808 79.981597 162.902757 0.000000 0.000000 0.000000 
